<svg width="22" height="20" viewBox="0 0 22 20" fill="none" xmlns="http://www.w3.org/2000/svg">
<path d="M11 0.000535672C8.25339 -0.0273746 5.60806 1.03638 3.6454 2.958C1.68273 4.87963 0.563329 7.50189 0.533203 10.2485C0.543786 12.4191 1.24204 14.5305 2.52766 16.2794C3.81329 18.0283 5.62014 19.3248 7.68869 19.9826C8.21203 20.0778 8.40234 19.7638 8.40234 19.4878C8.40234 19.2119 8.40234 18.6029 8.40234 17.7465C5.49066 18.365 4.87217 16.3763 4.87217 16.3763C4.67834 15.752 4.26627 15.2184 3.71131 14.8729C2.75978 14.2449 3.78743 14.2544 3.78743 14.2544C4.11633 14.2984 4.431 14.4163 4.70785 14.5992C4.9847 14.7821 5.21655 15.0253 5.38599 15.3106C5.68128 15.8227 6.1658 16.1983 6.73527 16.3567C7.30474 16.5151 7.91363 16.4435 8.43088 16.1575C8.48408 15.6364 8.72005 15.151 9.09695 14.7873C6.77523 14.5304 4.33931 13.655 4.33931 9.72515C4.31855 8.70005 4.69732 7.70707 5.39551 6.95621C5.07754 6.07611 5.11508 5.10673 5.50018 4.25387C5.50018 4.25387 6.3851 3.97792 8.35476 5.30055C10.0693 4.84366 11.8736 4.84366 13.5882 5.30055C15.5864 3.97792 16.4427 4.25387 16.4427 4.25387C16.8278 5.10673 16.8654 6.07611 16.5474 6.95621C17.2618 7.6933 17.6611 8.67962 17.6607 9.70612C17.6607 13.6454 15.2058 14.5113 12.9031 14.7682C13.1552 15.013 13.35 15.3107 13.4734 15.6397C13.5968 15.9688 13.6457 16.3211 13.6167 16.6713V19.4783C13.6167 19.4783 13.807 20.0778 14.3304 19.9731C16.393 19.3112 18.1938 18.0144 19.4755 16.268C20.7571 14.5215 21.4541 12.4147 21.4668 10.2485C21.4367 7.50189 20.3173 4.87963 18.3546 2.958C16.392 1.03638 13.7466 -0.0273746 11 0.000535672Z" fill="white"/>
</svg>
