<svg width="22" height="12" viewBox="0 0 22 12" fill="none" xmlns="http://www.w3.org/2000/svg">
<path d="M21.4118 0.81375C21.5617 0.345 21.4118 0 20.6909 0H18.3052C17.6977 0 17.4182 0.29625 17.2684 0.62625C17.2684 0.62625 16.0533 3.3675 14.3359 5.145C13.781 5.65875 13.5259 5.82375 13.2221 5.82375C13.0722 5.82375 12.8413 5.65875 12.8413 5.19V0.81375C12.8413 0.25125 12.6712 0 12.169 0H8.41839C8.03766 0 7.81084 0.2625 7.81084 0.50625C7.81084 1.03875 8.66951 1.1625 8.75862 2.6625V5.9175C8.75862 6.63 8.6209 6.76125 8.31713 6.76125C7.50706 6.76125 5.5386 4.00875 4.37211 0.85875C4.13719 0.2475 3.90632 0 3.29472 0H0.909078C0.228623 0 0.0909119 0.29625 0.0909119 0.62625C0.0909119 1.21125 0.900978 4.1175 3.86177 7.9575C5.83428 10.5788 8.6128 12 11.1402 12C12.6591 12 12.8454 11.685 12.8454 11.1413C12.8454 8.63625 12.7077 8.4 13.4691 8.4C13.8215 8.4 14.4291 8.565 15.8467 9.82875C17.4668 11.3288 17.7341 12 18.6414 12H21.0271C21.7075 12 22.0518 11.685 21.8533 11.0625C21.3997 9.75375 18.3336 7.06125 18.1959 6.88125C17.8435 6.46125 17.9448 6.27375 18.1959 5.89875C18.1999 5.895 21.1121 2.1 21.4118 0.81375Z" fill="white"/>
</svg>
