<svg width="22" height="14" viewBox="0 0 22 14" fill="none" xmlns="http://www.w3.org/2000/svg">
<path d="M20.5988 2.15935C20.3608 1.31453 19.702 0.651954 18.8534 0.417734C17.2909 1.99704e-05 11.0096 2.00714e-05 11.0096 2.00714e-05C11.0096 2.00714e-05 4.7401 -0.0100002 3.16131 0.417734C2.31711 0.65258 1.65516 1.31453 1.41969 2.15935C1.12347 3.76069 0.976298 5.38145 0.983187 7.00972C0.980056 8.62734 1.1266 10.2456 1.41969 11.8369C1.65516 12.6817 2.31711 13.3443 3.16131 13.5823C4.72382 14 11.0096 14 11.0096 14C11.0096 14 17.2753 14 18.8534 13.5823C19.702 13.3443 20.3608 12.6824 20.5988 11.8369C20.8863 10.2456 21.0265 8.62734 21.0165 7.00972C21.0265 5.38145 20.8894 3.76069 20.5988 2.15935ZM9.00304 10.0076V3.99867L14.2317 7.00972L9.00304 10.0076Z" fill="#FDFBFB"/>
</svg>
